<svg width="426" height="42" viewBox="0 0 426 42" fill="none" xmlns="http://www.w3.org/2000/svg">
<path d="M12 42V36H6V30H0V12H6V6H12V0H36V6H42V12H30V6H18V12H12V30H18V36H30V30H42V36H36V42H12ZM54 42V36H48V6H54V0H84V6H90V36H84V42H54ZM60 36H78V6H60V36ZM144 42V0H174V6H180V12H186V30H180V36H174V42H144ZM156 36H168V30H174V12H168V6H156V36ZM198 42V36H210V6H198V0H234V6H222V36H234V42H198ZM258 42V36H252V30H246V24H240V0H252V18H258V24H264V18H270V0H282V24H276V30H270V36H264V42H258ZM336 42V12H342V6H348V0H366V6H372V12H378V42H366V30H348V42H336ZM348 24H366V12H360V6H354V12H348V24ZM390 42V36H384V30H396V36H414V24H390V18H384V6H390V0H420V6H426V12H414V6H396V18H420V24H426V36H420V42H390Z" fill="#A0458C"/>
<path d="M120 42V36H114V30H108V24H102V18H108V12H114V6H120V0H132V6H126V12H120V18H114V24H120V30H126V36H132V42H120ZM294 42V36H300V30H306V24H312V18H306V12H300V6H294V0H306V6H312V12H318V18H324V24H318V30H312V36H306V42H294Z" fill="#7C7BC0"/>
</svg>
